<svg transform="scale(1)" version="1.1" id="Layer_1" xmlns="http://www.w3.org/2000/svg" xmlns:xlink="http://www.w3.org/1999/xlink" x="0px" y="0px" viewBox="0 0 500 500" xml:space="preserve" class="show_show__wrapper__graphic__5Waiy "><title>React</title><style type="text/css">
	.st0{fill:#225870;}
	.st1{fill:url(#SVGID_1_);}
	.st2{fill:#68E1FD;}
	.st3{fill:#163B58;}
	.st4{fill:url(#SVGID_00000068660280281746293030000002499643222788640148_);}
	.st5{fill:#CC2127;}
	.st6{fill:#FFFFFF;}
	.st7{fill:url(#SVGID_00000090281667925132586970000003225089498992764331_);}
	.st8{fill:url(#SVGID_00000016034832227990726350000012017825597981207216_);}
	.st9{fill:url(#SVGID_00000180333836692396562850000000387214313147582093_);}
	.st10{fill:url(#SVGID_00000178923840595198721900000011968966450811697301_);}
	.st11{opacity:0.53;fill:#2E2E75;enable-background:new    ;}
</style><path class="st0" id="field" d="M257,407.5l218.7-129.3c7-3.9,12.9-10.3,6.1-14.5L262.3,137.1c-3.3-2-8.3-3.4-11.6-1.4L21,269
	c-7,4-8.2,15.3-1.2,19.4l208.4,118.9C237,412.5,248,412.6,257,407.5z"></path><g id="plant"><linearGradient id="SVGID_1_" gradientUnits="userSpaceOnUse" x1="422.637" y1="221.0949" x2="382.587" y2="196.5449" gradientTransform="matrix(1 0 0 -1 0 502)"><stop offset="0" style="stop-color: rgb(22, 59, 88);"></stop><stop offset="1" style="stop-color: rgb(34, 88, 112);"></stop></linearGradient><polyline class="st1" points="424.4,269.4 370.6,295.2 380,324.6 448.6,276.5 	"></polyline><path class="st2" d="M430.8,235.5c-5.7,7.3-8.5,16.5-7.8,25.8c1,15,9.5,19.4,9.5,19.4l10.1,0.6c0,0,12-3.9,10.4-23.5
		c-1.5-18.4-7.4-22.7-7.4-22.7"></path><ellipse class="st3" cx="438.2" cy="235.5" rx="7.4" ry="2.6"></ellipse><ellipse class="st2" cx="438.2" cy="279.1" rx="7.4" ry="2.6"></ellipse><path class="st0" d="M435.1,236.3l-9-51.6c-0.2-1.1-1.9-0.6-1.7,0.5l9,51.6C433.6,237.9,435.3,237.4,435.1,236.3z"></path><path class="st0" d="M436.8,236.5c0.3-0.1,0.6-0.1,0.8,0c0.4,0.1,0.7,0.3,0.9,0.6c0.7-14.4,0.9-28.8,0.4-43.2c0-1.1-1.8-1.1-1.8,0
		C437.6,208.1,437.5,222.3,436.8,236.5z"></path><path class="st0" d="M457,186.5c-6.7,16.2-12.5,32.7-17.4,49.5c-0.1,0.5,0.2,1,0.7,1.1c0.4,0.1,0.9-0.2,1-0.6
		c4.9-16.8,10.7-33.4,17.4-49.5C459.1,185.9,457.4,185.4,457,186.5z"></path><path class="st0" d="M428.1,206c0,0-1-0.1-5.2-4.6s1.1-7.8-1.3-12.8s1-11.6,1.8-16.6c0.5,3.5,1.8,6.9,3.7,9.8
		c3.2,4.6,5,8.7,4.6,14.5c-0.2,3.7-0.9,7.3-1.9,10.8"></path><path class="st0" d="M437.2,214c0,0-0.9-0.4-3.9-5.7s3-7.3,1.8-12.8s3.8-11,5.8-15.7c-0.4,3.5,0,7.1,1.2,10.4c2,5.2,2.7,9.7,1,15.2
		c-1.1,3.5-2.6,6.8-4.5,10"></path><path class="st0" d="M449.8,204.7c0,0-0.8-0.5-2.7-6.4s4.4-6.5,4.4-12.1s6-10,8.9-14.2c-1.1,3.4-1.4,7-0.9,10.5
		c0.9,5.5,0.7,10-2.1,15.1c-1.8,3.2-4,6.2-6.4,8.9"></path></g><g id="pinterest"><linearGradient id="SVGID_00000173856230461970023140000012934955655575529102_" gradientUnits="userSpaceOnUse" x1="166.3804" y1="163.5791" x2="140.1304" y2="152.6091" gradientTransform="matrix(1 0 0 -1 0 502)"><stop offset="0" style="stop-color: rgb(22, 59, 88);"></stop><stop offset="1" style="stop-color: rgb(34, 88, 112);"></stop></linearGradient><polyline points="196.3,301.9 124.4,341.8 
		162.4,364.1 240.3,317.5 	" style="fill: url(&quot;#SVGID_00000173856230461970023140000012934955655575529102_&quot;);"></polyline><path class="st5" d="M228.2,226.2l-71.1,40.9c-2.5,1.4-3.8,4.1-3.5,7l9.2,82.9c0.2,1.8,1.9,3.2,3.7,3c0.5-0.1,0.9-0.2,1.3-0.4
		l72.6-42.1c2.2-1.3,3.4-3.7,3.1-6.3c-3.2-27.4-6-53.2-9.1-81.8c-0.2-2.3-2.2-3.9-4.5-3.7C229.3,225.7,228.7,225.9,228.2,226.2z"></path><path class="st6" d="M194.8,266.4l0.2-0.1c1.8-0.9,3.7-1.5,5.6-1.7c3.7-0.4,7.4,1.2,9.7,4.2c1.6,2,2.7,4.3,3.2,6.8
		c0.9,3.9,1.1,7.9,0.7,11.9c-0.3,3.7-1.6,7.2-3.5,10.3c-1.2,1.8-2.7,3.4-4.6,4.5l-0.2,0.1l-0.3,0.1l-0.3,0.1c-0.3,0.1-0.6,0.3-1,0.4
		c-1.4,0.5-3,0.3-4.3-0.5c-0.3-0.2-0.6-0.4-0.9-0.7c0,1,0.1,1.9,0.1,2.9c0,2.3,0.1,4.6,0.1,7c-0.1,3-0.6,6.1-1.4,9
		c-0.2,0.6-0.3,1.2-0.5,1.8c0,0.1-0.1,0.3-0.2,0.4c-0.1,0.1-0.1,0.1-0.2,0.1c-0.2,0-0.3-0.2-0.3-0.3c-0.7-1.8-1.2-3.7-1.6-5.6
		c-0.3-1.4-0.5-2.7-0.6-4.1c-0.2-1.9-0.2-3.8-0.3-5.8c-0.2-4.4-0.3-8.7-0.5-13.1c0-0.2-0.1-0.4-0.2-0.5c-0.7-1.2-1.3-2.6-1.6-4
		c-0.3-1.4-0.4-2.7-0.3-4.1c0.1-1.7,0.6-3.4,1.6-4.8l0.1-0.1c0.3-0.4,0.7-0.7,1.1-1l0.2-0.1l0.3-0.1c0.6-0.3,1.4-0.3,2,0
		c0.9,0.6,1.5,1.5,1.7,2.5c0.1,0.2,0.1,0.3,0.1,0.5c0.2,1.2,0.3,2.5,0.3,3.8c0,2.5,0,5,0,7.4c0,0.6,0.1,1.1,0.2,1.7
		c0.1,0.6,0.4,1.3,0.8,1.8c0.8,1.1,2.2,1.5,3.4,0.9l0.3-0.1l0.1-0.1l0.1-0.1l0.3-0.2c1.4-1,2.5-2.4,3-4c0-0.1,0.1-0.2,0.1-0.4
		c0.8-2.3,1.2-4.7,1.2-7.1c0-2.3-0.2-4.7-0.6-7c-0.1-0.3-0.1-0.6-0.2-0.9c-0.3-1.5-0.8-2.9-1.6-4.2c-1.6-2.6-3.7-3.8-6.3-3.5
		c-0.3,0-0.5,0.1-0.8,0.1c-1.2,0.2-2.3,0.5-3.3,1l-0.3,0.1l-0.4,0.2c-1.6,0.9-2.9,2.1-4.1,3.6l-0.2,0.2c-0.1,0.1-0.2,0.3-0.3,0.4
		s-0.2,0.3-0.3,0.4c-2.6,3.8-3.7,8.3-3.3,12.9c0.1,0.8,0.2,1.7,0.4,2.5c0.2,0.8,0.4,1.6,0.7,2.3c0.4,1.1,1.1,2,2.1,2.7
		c0.3,0.2,0.6,0.6,0.7,1c0.1,0.2,0.1,0.5,0.1,0.7c0,0.8,0,1.6,0,2.4c0,0.4-0.1,0.8-0.4,1.2c-0.1,0.1-0.1,0.1-0.2,0.1
		c-0.1,0.1-0.3,0.1-0.5,0.1c-2-0.1-3.8-1.1-4.8-2.9c-1.2-1.7-2-3.7-2.4-5.7c-0.4-1.7-0.6-3.5-0.5-5.3c0-5.8,1.9-11.4,5.5-16
		c0.3-0.4,0.6-0.7,0.9-1c1.7-2,3.7-3.7,6-5L194.8,266.4z"></path><path class="st5" d="M219.3,262.6c3.8,4.9,6.2,10.7,7.1,16.8c0.5,2.9,0.7,5.7,0.7,8.6c-0.2,11-3.4,20.8-9.6,29.1
		c-2.9,4-6.6,7.4-11,9.8c-1.2,0.6-2.5,1.2-3.8,1.7c-2.9,1-6,1.4-9.1,1.2c-5.8-0.6-11.2-3.4-14.9-7.9c-3.3-3.8-5.6-8.2-6.9-13
		l-0.4-1.4l-0.6-2.7c0-0.1,0-0.3,0-0.5c-0.2-1.7-0.5-3.4-0.6-5.2c-0.7-9.6,1.4-19.2,6-27.6c2.9-5.6,7.1-10.3,12.4-13.8
		c0.4-0.2,0.7-0.5,1-0.7l2.3-1.2c0.1,0,0.1,0,0.2,0c0.7-0.3,1.3-0.6,2-0.8c3.4-1.3,7-1.7,10.5-1.2
		C210.3,254.6,215.3,257.5,219.3,262.6z M214.2,287.6c0.5-4,0.2-8-0.7-11.9c-0.5-2.5-1.6-4.8-3.2-6.8c-2.3-3-6-4.6-9.7-4.2
		c-2,0.2-3.9,0.8-5.6,1.7l-0.2,0.1l-0.2,0.1c-2.3,1.3-4.3,3-6,5c-0.3,0.3-0.6,0.7-0.9,1c-3.6,4.6-5.5,10.2-5.5,16
		c0,1.8,0.1,3.5,0.5,5.3c0.4,2,1.3,4,2.4,5.7c1,1.7,2.8,2.8,4.8,2.9c0.2,0,0.3,0,0.5-0.1c0.1,0,0.1-0.1,0.2-0.1
		c0.3-0.3,0.5-0.8,0.4-1.2c0-0.8-0.1-1.6,0-2.4c0-0.2,0-0.5-0.1-0.7c-0.1-0.4-0.3-0.8-0.7-1c-0.9-0.7-1.6-1.6-2.1-2.7
		c-0.3-0.7-0.6-1.5-0.7-2.3c-0.2-0.8-0.3-1.6-0.4-2.5c-0.5-4.5,0.7-9.1,3.3-12.9l0.3-0.4l0.3-0.4l0.2-0.2c1.1-1.4,2.4-2.6,4-3.5
		l0.4-0.2l0.3-0.1c1-0.5,2.2-0.9,3.3-1c0.3,0,0.5-0.1,0.8-0.1c2.6-0.2,4.7,1,6.3,3.5c0.8,1.3,1.3,2.7,1.6,4.2
		c0.1,0.3,0.1,0.6,0.2,0.9c0.4,2.3,0.7,4.6,0.6,7c0,2.4-0.4,4.8-1.2,7.1c0,0.1-0.1,0.2-0.1,0.4c-0.5,1.6-1.6,3-3,4l-0.3,0.2
		l-0.1,0.1l-0.1,0.1l-0.3,0.1c-1.2,0.5-2.6,0.1-3.3-1c-0.4-0.5-0.7-1.1-0.8-1.8c-0.1-0.6-0.2-1.1-0.2-1.7c0-2.5,0-5,0-7.4
		c0-1.3-0.1-2.5-0.3-3.8c0-0.2-0.1-0.3-0.1-0.5c-0.2-1-0.8-1.9-1.7-2.5c-0.6-0.3-1.4-0.3-2,0l-0.3,0.1l-0.2,0.1
		c-0.4,0.3-0.8,0.6-1.1,1l-0.1,0.1c-1,1.4-1.5,3-1.6,4.8c-0.1,1.4,0,2.8,0.3,4.1c0.3,1.4,0.9,2.8,1.6,4c0.1,0.1,0.1,0.3,0.1,0.4
		c0.2,4.5,0.3,8.9,0.5,13.3c0.1,1.9,0.1,3.9,0.3,5.8c0.1,1.4,0.3,2.8,0.6,4.1c0.4,1.9,1,3.8,1.6,5.6c0.1,0.2,0.2,0.3,0.3,0.3
		c0,0,0.1,0,0.1,0c0.1-0.1,0.2-0.2,0.2-0.3c0.2-0.7,0.4-1.3,0.5-1.9c0.8-2.9,1.3-6,1.4-9c0.1-2.3-0.1-4.6-0.1-7c0-1,0-1.9-0.1-2.9
		c0.3,0.2,0.6,0.5,0.9,0.7c1.3,0.8,2.9,1,4.3,0.5c0.3-0.1,0.6-0.2,1-0.4l0.3-0.1l0.3-0.1l0.2-0.1c1.9-1.1,3.5-2.6,4.6-4.5
		C212.6,294.8,213.8,291.3,214.2,287.6"></path></g><g id="ig"><linearGradient id="SVGID_00000094587574793813039120000007431344156278217891_" gradientUnits="userSpaceOnUse" x1="61.1089" y1="231.5126" x2="34.8489" y2="220.5426" gradientTransform="matrix(1 0 0 -1 0 502)"><stop offset="0" style="stop-color: rgb(22, 59, 88);"></stop><stop offset="1" style="stop-color: rgb(34, 88, 112);"></stop></linearGradient><polyline points="91,234 19.1,273.9 57.1,296.1 
		135.1,249.6 	" style="fill: url(&quot;#SVGID_00000094587574793813039120000007431344156278217891_&quot;);"></polyline><linearGradient id="SVGID_00000066511418831646207310000000778074012336099206_" gradientUnits="userSpaceOnUse" x1="83.8274" y1="235.2708" x2="114.1774" y2="335.0608" gradientTransform="matrix(1 0 0 -1 0 502)"><stop offset="0" style="stop-color: rgb(255, 219, 123);"></stop><stop offset="0.23" style="stop-color: rgb(218, 46, 129);"></stop><stop offset="0.59" style="stop-color: rgb(151, 54, 187);"></stop><stop offset="1" style="stop-color: rgb(78, 98, 212);"></stop></linearGradient><path d="M126.9,156.5l-71.1,40.9
		c-2.5,1.4-3.9,4.2-3.5,7l9.1,82.9c0.2,1.8,1.8,3.2,3.7,3c0.5,0,0.9-0.2,1.3-0.4l72.6-42.1c2.2-1.3,3.4-3.7,3.1-6.2
		c-3.2-27.4-6-53.2-9.1-81.8c-0.2-2.3-2.2-3.9-4.5-3.7C127.9,156,127.4,156.2,126.9,156.5z" style="fill: url(&quot;#SVGID_00000066511418831646207310000000778074012336099206_&quot;);"></path><path class="st6" d="M105.6,203.8c1.2-0.6,2.2,0.2,2.4,1.7c0.2,1.6-0.5,3.1-1.8,4c-1.2,0.6-2.3-0.3-2.4-1.9
		C103.6,206.1,104.3,204.6,105.6,203.8z"></path><path class="st6" d="M95.8,211.4c5.1-2.5,9.9,1,10.6,7.9s-2.8,14.4-7.9,16.9s-9.9-1.1-10.7-8S90.7,213.9,95.8,211.4z M98.1,230.8
		c2.9-1.5,4.9-5.9,4.5-9.8s-3.2-5.9-6.1-4.5s-5,5.8-4.6,9.7S95,232.3,98.1,230.8L98.1,230.8"></path><path class="st6" d="M114.4,202.2c1.1,7.7,2.1,15.5,2.6,23.4c0.6,8.3-3,15.1-9.1,18.4c-1,0.5-2,1-3,1.5c-1.7,0.8-3.3,1.6-5,2.4
		s-3.2,1.6-4.8,2.4l-2.8,1.3c-6.3,2.9-11.1,0.2-12.5-7.9c-1.3-7.6-2.1-15.5-2.6-23.4c-0.5-7.7,2.3-13.4,8.1-17.1
		c3-1.9,6-3.6,9.2-5.2c3.1-1.5,6.4-2.8,9.7-3.9C109.6,192.5,113.4,195.4,114.4,202.2z M113.1,226.5c-0.6-7-1.4-13.9-2.3-20.8
		c-0.8-5.8-3.2-7.5-7.6-5.6c-1,0.4-2.1,0.9-3.1,1.4c-1.7,0.8-3.3,1.7-5,2.5c-1.5,0.7-3,1.4-4.5,2.2c-1.1,0.6-2.2,1.1-3.4,1.7
		c-1,0.5-1.9,1.2-2.7,1.9c-2.4,2.1-3.6,5.2-3.3,8.4c0.7,8.1,1.6,16.2,2.7,24.1c0.4,3.3,2.3,4.8,4.9,4.4c1.2-0.2,2.4-0.5,3.6-1.1
		c2.2-1,4.4-2.1,6.6-3.2c2.4-1.2,4.8-2.4,7.2-3.6c0.8-0.4,1.5-0.9,2.2-1.4C112.1,234.9,113.6,231.5,113.1,226.5"></path></g><g id="twt"><linearGradient id="SVGID_00000152248199577681100270000003626537230490499767_" gradientUnits="userSpaceOnUse" x1="285.35" y1="236.59" x2="268.04" y2="217.02" gradientTransform="matrix(1 0 0 -1 0 502)"><stop offset="0" style="stop-color: rgb(22, 59, 88);"></stop><stop offset="1" style="stop-color: rgb(34, 88, 112);"></stop></linearGradient><polyline points="310,225.6 238.1,265.5 
		276,287.8 354,241.2 	" style="fill: url(&quot;#SVGID_00000152248199577681100270000003626537230490499767_&quot;);"></polyline><path class="st2" d="M347,148.9l-71.1,40.9c-2.5,1.4-3.8,4.1-3.5,6.9l9.1,82.9c0.2,1.8,1.9,3.2,3.7,3c0.5,0,0.9-0.2,1.3-0.4
		l72.6-42.1c2.2-1.3,3.4-3.7,3.1-6.2c-3.2-27.4-6-53.2-9.1-81.8c-0.2-2.3-2.2-3.9-4.5-3.7C348.1,148.4,347.5,148.6,347,148.9z"></path><path class="st6" d="M332.1,197L332.1,197c-0.3,1.1-0.7,2.2-1.1,3.2c-0.4,0.8-0.8,1.6-1.2,2.4c-0.1,0.2-0.1,0.4-0.1,0.6
		c0.7,6.5-0.2,13.1-2.6,19.2c-1.6,4.7-4.4,8.9-8,12.4c-1.3,1.2-2.7,2.2-4.2,3.1c-2.8,1.7-6.2,2.3-9.5,1.4l-0.2-0.1
		c0.5-0.2,0.9-0.4,1.3-0.6c3.1-1.9,5.6-4.6,7.2-7.8c-2.8,1.2-4.9,0.3-6.2-2.7c0.4-0.2,0.8-0.3,1.2-0.5c0.5-0.3,1-0.7,1.4-1.1
		c-0.5,0-1,0-1.6,0c-0.5-0.1-1-0.3-1.5-0.6c-0.5-0.3-0.9-0.8-1.2-1.2c-0.4-0.5-0.7-1.1-0.9-1.7c-0.2-0.7-0.4-1.4-0.5-2.2
		c1,0.1,2-0.1,2.8-0.6c-1.7-0.7-2.8-2.2-3.2-4.6c-0.3-1.9-0.2-3.8,0.3-5.6c3.8,3.5,8.3,4.2,13.4,1.8c-0.1-0.5-0.2-0.9-0.2-1.4
		c-0.5-3.3,0.3-6.7,2.2-9.5c0.7-1.2,1.7-2.2,2.9-2.9c1.3-0.9,3-0.9,4.4-0.1c0.2,0.1,0.4,0.1,0.5,0.1c0.1,0,0.2-0.1,0.2-0.2
		c1.2-1.2,2.3-2.5,3.2-3.9c-0.3,2.1-0.9,4.2-2,6.1c0.3-0.3,0.7-0.6,1-0.9s0.7-0.7,1.1-1S331.8,197.4,332.1,197z"></path></g><g id="fb"><linearGradient id="SVGID_00000039839409193436899650000015499243975297180567_" gradientUnits="userSpaceOnUse" x1="187.7155" y1="295.584" x2="170.0255" y2="275.634" gradientTransform="matrix(1 0 0 -1 0 502)"><stop offset="0" style="stop-color: rgb(22, 59, 88);"></stop><stop offset="1" style="stop-color: rgb(34, 88, 112);"></stop></linearGradient><polyline points="212.5,166.6 140.5,206.4 
		178.5,228.7 256.5,182.1 	" style="fill: url(&quot;#SVGID_00000039839409193436899650000015499243975297180567_&quot;);"></polyline><path class="st2" d="M248.6,89.3l-71.1,40.9c-2.5,1.4-3.9,4.2-3.5,7l9.1,82.9c0.2,1.8,1.9,3.2,3.7,3c0.4-0.1,0.9-0.2,1.3-0.4
		l72.6-42.1c2.2-1.3,3.4-3.7,3.1-6.2c-3.2-27.4-6-53.2-9.1-81.8c-0.2-2.3-2.2-4-4.4-3.8C249.8,88.8,249.2,89,248.6,89.3z"></path><path class="st11" d="M248.6,89.3l-71.1,40.9c-2.5,1.4-3.9,4.2-3.5,7l9.1,82.9c0.2,1.8,1.9,3.2,3.7,3c0.4-0.1,0.9-0.2,1.3-0.4
		l72.6-42.1c2.2-1.3,3.4-3.7,3.1-6.2c-3.2-27.4-6-53.2-9.1-81.8c-0.2-2.3-2.2-4-4.4-3.8C249.8,88.8,249.2,89,248.6,89.3z"></path><path class="st6" d="M220.6,132.5l1.2-0.6l1.2-0.6l0.6-0.3c0.4-0.2,0.5,0,0.6,0.6c0.1,2,0.3,4,0.4,6c0,0.6-0.1,0.9-0.5,1.1
		l-1.1,0.5l-1.5,0.7c-1,0.5-1.4,1.5-1.3,3l0.3,4.2c0.2-0.1,0.3-0.1,0.5-0.2l3.4-1.7c0.5-0.2,0.6-0.1,0.6,0.7l0.1,6.1
		c0.1,0.4-0.1,0.8-0.5,1l-1,0.5l-2.1,1l-0.5,0.3l0.1,0.9l1.4,20.1c0.1,0.9,0,1-0.6,1.3l-2.3,1.1l-2.3,1.1c-0.6,0.3-0.6,0.2-0.7-0.7
		l-1.4-20.1l-0.1-0.9l-2.3,1.1c-0.6,0.3-0.7,0.2-0.8-0.7l-0.4-5.6c-0.1-0.8,0-0.9,0.5-1.2l2.4-1.1l-0.1-0.8
		c-0.1-2.1-0.3-4.1-0.4-6.2c-0.1-3.9,1.9-8.1,4.4-9.4C219.2,133.2,219.9,132.8,220.6,132.5z"></path></g></svg>